<svg xmlns="http://www.w3.org/2000/svg" class="ct-icon" width="15" height="15" viewBox="0 0 15 15"><title>Cart header icon</title><path d="M0.6,0.7C0.3,0.7,0,0.8,0,1.1s0.1,0.6,0.6,0.6l0,0h1c0.1,0,0.1,0.1,0.1,0.1L4.2,10c0.3,0.7,0.9,1.2,1.6,1.2H12c0.7,0,1.3-0.6,1.6-1.2L15,4.7c0.1-0.3-0.1-0.6-0.4-0.6h-0.1H3.6L2.8,1.7l0,0c0-0.7-0.6-1-1.2-1H0.6zM6.1,12.2c-0.6,0-1,0.6-1,1c0,0.4,0.6,1,1,1c0.4,0,1-0.6,1-1C7.2,12.8,6.7,12.2,6.1,12.2zM11.7,12.2c-0.6,0-1,0.6-1,1c0,0.4,0.6,1,1,1c0.6,0,1-0.6,1-1C12.7,12.8,12.3,12.2,11.7,12.2z"/></svg>